<svg xmlns="http://www.w3.org/2000/svg" version="1.1" xmlns:xlink="http://www.w3.org/1999/xlink" xmlns:svgjs="http://svgjs.dev/svgjs" width="1920" height="1080" preserveAspectRatio="none" viewBox="0 0 1920 1080"><g mask="url(&quot;#SvgjsMask1061&quot;)" fill="none"><rect width="1920" height="1080" x="0" y="0" fill="rgba(255, 241, 243, 1)"></rect><path d="M1920 0L1368.27 0L1920 257.07z" fill="rgba(255, 255, 255, .1)"></path><path d="M1368.27 0L1920 257.07L1920 591.44L840.09 0z" fill="rgba(255, 255, 255, .075)"></path><path d="M840.0900000000001 0L1920 591.44L1920 698.4200000000001L717.2200000000001 0z" fill="rgba(255, 255, 255, .05)"></path><path d="M717.2200000000003 0L1920 698.4200000000001L1920 957.19L369.84000000000026 0z" fill="rgba(255, 255, 255, .025)"></path><path d="M0 1080L780.08 1080L0 724.81z" fill="rgba(0, 0, 0, .1)"></path><path d="M0 724.81L780.08 1080L992.5500000000001 1080L0 340.4599999999999z" fill="rgba(0, 0, 0, .075)"></path><path d="M0 340.46000000000004L992.5500000000001 1080L1266.66 1080L0 139.42000000000004z" fill="rgba(0, 0, 0, .05)"></path><path d="M0 139.42000000000007L1266.66 1080L1682.64 1080L0 133.50000000000009z" fill="rgba(0, 0, 0, .025)"></path></g><defs><mask id="SvgjsMask1061"><rect width="1920" height="1080" fill="#ffffff"></rect></mask></defs></svg>