<svg xmlns="http://www.w3.org/2000/svg" version="1.1" xmlns:xlink="http://www.w3.org/1999/xlink" xmlns:svgjs="http://svgjs.dev/svgjs" width="1920" height="2500" preserveAspectRatio="none" viewBox="0 0 1920 2500"><g mask="url(&quot;#SvgjsMask1008&quot;)" fill="none"><rect width="1920" height="2500" x="0" y="0" fill="rgba(255, 241, 243, 1)"></rect><path d="M1920 0L1150.54 0L1920 97.54z" fill="rgba(255, 255, 255, .1)"></path><path d="M1150.54 0L1920 97.54L1920 611.03L822.23 0z" fill="rgba(255, 255, 255, .075)"></path><path d="M822.23 0L1920 611.03L1920 1391.49L698.28 0z" fill="rgba(255, 255, 255, .05)"></path><path d="M698.28 0L1920 1391.49L1920 1940.03L227.48999999999995 0z" fill="rgba(255, 255, 255, .025)"></path><path d="M0 2500L411.79 2500L0 1908.19z" fill="rgba(0, 0, 0, .1)"></path><path d="M0 1908.19L411.79 2500L1035.79 2500L0 1488.81z" fill="rgba(0, 0, 0, .075)"></path><path d="M0 1488.81L1035.79 2500L1352.8 2500L0 796.93z" fill="rgba(0, 0, 0, .05)"></path><path d="M0 796.9300000000001L1352.8 2500L1432.58 2500L0 615.24z" fill="rgba(0, 0, 0, .025)"></path></g><defs><mask id="SvgjsMask1008"><rect width="1920" height="2500" fill="#ffffff"></rect></mask></defs></svg>