<svg width="60" height="57" viewBox="0 0 60 57" fill="none" xmlns="http://www.w3.org/2000/svg">
<path d="M18.1211 29.8225C22.0599 26.2855 24.2682 24.3024 28.207 20.7654M18.1211 29.8225C15.6702 32.0235 12.2861 36.736 10.0793 39.9822M18.1211 29.8225L7.367 25.7004L2.67734 28.8065L10.0793 39.9822M24.3333 39.2018C29.3339 37.3522 36.6896 33.3951 36.6896 33.3951M24.3333 39.2018L23.9327 50.712L19.2431 53.818L11.8029 42.5846M24.3333 39.2018C20.5775 40.591 15.3588 41.8239 11.8029 42.5846M51.2608 23.7442C53.5743 22.2119 55.2503 19.8887 55.9748 17.21C56.5706 15.0072 57.1091 13.0162 57.8568 10.2516L50.7152 9.26944C47.9661 8.89139 45.1735 9.52808 42.8601 11.0604M51.2608 23.7442L36.6896 33.3951M51.2608 23.7442L48.4885 52.5606L45.9395 54.2488L38.7898 36.566L36.6896 33.3951M42.8601 11.0604L15.3571 2.53751L12.8081 4.22575L26.1886 17.5403L28.207 20.7654M42.8601 11.0604L28.207 20.7654M11.8029 42.5846C9.45628 43.0866 7.83379 43.383 7.83379 43.383C7.83379 43.383 8.73964 41.9528 10.0793 39.9822" stroke="#003050" stroke-width="4" stroke-linecap="round" stroke-linejoin="round"/>
</svg>
