<svg xmlns="http://www.w3.org/2000/svg" version="1.1" xmlns:xlink="http://www.w3.org/1999/xlink" xmlns:svgjs="http://svgjs.dev/svgjs" width="1920" height="560" preserveAspectRatio="none" viewBox="0 0 1920 560"><g mask="url(&quot;#SvgjsMask1029&quot;)" fill="none"><path d="M1032.03-8.58C851.63-7.87 690.02 131.17 324.66 134.13-40.69 137.09-197.22 355.48-382.7 358.13" stroke="rgba(250, 181, 18, 1)" stroke-width="2"></path><path d="M1095.15-85.87C932.2-74.23 815.12 242.18 530.18 242.5 245.24 242.82 113.37 65.43-34.79 63.3" stroke="rgba(250, 181, 18, 1)" stroke-width="2"></path><path d="M1169.95-7.2C963.9 6.95 816.96 402.05 452.87 403.02 88.77 403.99-80.72 247.13-264.22 246.22" stroke="rgba(250, 181, 18, 1)" stroke-width="2"></path><path d="M745.37-12.73C598.34 53.89 673.62 514.01 381.99 521 90.36 527.99-160.72 403.78-344.77 403.4" stroke="rgba(250, 181, 18, 1)" stroke-width="2"></path><path d="M676.13-28.27C517.67-4.29 435.76 371.57 177.01 374.03-81.74 376.49-193.25 246.26-322.11 245.23" stroke="rgba(250, 181, 18, 1)" stroke-width="2"></path></g><defs><mask id="SvgjsMask1029"><rect width="1920" height="560" fill="#ffffff"></rect></mask></defs></svg>