<svg xmlns="http://www.w3.org/2000/svg" version="1.1" xmlns:xlink="http://www.w3.org/1999/xlink" xmlns:svgjs="http://svgjs.dev/svgjs" width="375" height="560" preserveAspectRatio="none" viewBox="0 0 375 560"><g mask="url(&quot;#SvgjsMask1045&quot;)" fill="none"><path d="M295.6-79.71C230.18-59.27 249.7 85.74 117.55 128.76-14.6 171.78 6.22 324.57-60.5 347.16" stroke="rgba(250, 181, 18, 1)" stroke-width="2"></path><path d="M231.91-61.41C157.24 17.67 167.21 344.22 85.42 348.22 3.63 352.22 3.29 124.12-61.07 85.02" stroke="rgba(250, 181, 18, 1)" stroke-width="2"></path><path d="M196.43-93.05C138.81 8.88 172.91 334.49 94.29 364.03 15.67 393.57 37.67 202.72-7.85 173.63" stroke="rgba(250, 181, 18, 1)" stroke-width="2"></path><path d="M283.77-81.74C220.99-55.43 249.12 90.39 125.31 139.66 1.49 188.93 27.87 323.87-33.16 346.86" stroke="rgba(250, 181, 18, 1)" stroke-width="2"></path><path d="M214.63-80.97C151.82-28.84 202.43 137.23 83.53 218.06-35.38 298.89 7.72 401.77-47.58 430.86" stroke="rgba(250, 181, 18, 1)" stroke-width="2"></path></g><defs><mask id="SvgjsMask1045"><rect width="375" height="560" fill="#ffffff"></rect></mask></defs></svg>